<svg id="图层_1" data-name="图层 1" xmlns="http://www.w3.org/2000/svg" xmlns:xlink="http://www.w3.org/1999/xlink" viewBox="0 0 120.56 117.7"><defs><style>.cls-1{opacity:0.76;fill:url(#未命名的渐变_12);}.cls-2{fill:#4a5d7b;}.cls-3{fill:#72b5bd;}.cls-4{fill:#66adb3;}.cls-5,.cls-6{fill:none;stroke:#72b5bd;stroke-miterlimit:10;}.cls-5{stroke-width:0.75px;}</style><radialGradient id="未命名的渐变_12" cx="408.06" cy="386.57" r="63.29" gradientTransform="translate(-305.89 -429.29) scale(0.9 1.26)" gradientUnits="userSpaceOnUse"><stop offset="0.5" stop-color="#fffefd"/><stop offset="1" stop-color="#bce0e2"/><stop offset="1" stop-color="#b5dddf"/></radialGradient></defs><ellipse class="cls-1" cx="60.28" cy="58.85" rx="60.28" ry="58.85"/><polygon class="cls-2" points="35.13 48.25 33.28 48.95 29.5 38.31 31.34 37.6 35.13 48.25"/><ellipse class="cls-2" cx="30.59" cy="38.4" rx="3.69" ry="3.84"/><polygon class="cls-2" points="96.91 40.36 96.02 39.13 102.61 33.99 103.5 35.22 96.91 40.36"/><ellipse class="cls-2" cx="102.79" cy="34.84" rx="2.79" ry="2.89"/><polygon class="cls-2" points="43.47 76.93 44.88 77.37 42.52 85.49 41.12 85.05 43.47 76.93"/><ellipse class="cls-2" cx="41.9" cy="84.93" rx="2.76" ry="2.87"/><polygon class="cls-2" points="98.73 64.44 100.11 62.98 107.92 70.97 106.54 72.42 98.73 64.44"/><ellipse class="cls-2" cx="106.89" cy="71.37" rx="3.7" ry="3.85"/><polygon class="cls-2" points="62.78 70.33 64.51 70.05 66.01 80 64.29 80.28 62.78 70.33"/><ellipse class="cls-2" cx="65.07" cy="79.72" rx="3.28" ry="3.41"/><polygon class="cls-2" points="71.95 41.31 70.82 41.74 68.5 35.21 69.63 34.78 71.95 41.31"/><ellipse class="cls-2" cx="69.17" cy="35.26" rx="2.27" ry="2.35"/><polygon class="cls-2" points="21.36 58.49 21.3 59.85 13.97 59.47 14.04 58.1 21.36 58.49"/><ellipse class="cls-2" cx="14.31" cy="58.79" rx="2.48" ry="2.58"/><rect class="cls-3" x="443.25" y="394.09" width="1.36" height="7.31" transform="translate(503.69 -388.3) rotate(90.03)"/><ellipse class="cls-3" cx="109.09" cy="55.46" rx="2.47" ry="2.56"/><polygon class="cls-3" points="91.2 69.29 92.26 69 93.77 75.13 92.71 75.41 91.2 69.29"/><ellipse class="cls-3" cx="93.17" cy="75.01" rx="2.06" ry="2.14"/><polygon class="cls-3" points="27.59 75.44 28.47 76.83 20.98 81.93 20.1 80.53 27.59 75.44"/><ellipse class="cls-3" cx="20.85" cy="81" rx="3.03" ry="3.14"/><rect class="cls-3" x="80.18" y="30.94" width="1.38" height="7.99"/><ellipse class="cls-3" cx="80.88" cy="31.28" rx="2.6" ry="2.7"/><polygon class="cls-3" points="26.24 50.13 25.07 50.85 21.21 44.11 22.38 43.39 26.24 50.13"/><ellipse class="cls-3" cx="21.97" cy="44.02" rx="2.55" ry="2.65"/><rect class="cls-3" x="58.67" y="35.56" width="1.61" height="9.3"/><ellipse class="cls-3" cx="59.49" cy="35.95" rx="3.03" ry="3.14"/><rect class="cls-3" x="41.2" y="39.01" width="1.18" height="6.81"/><ellipse class="cls-3" cx="41.8" cy="39.3" rx="2.22" ry="2.3"/><polygon class="cls-3" points="90.91 39.18 89.08 38.78 91.2 28.22 93.03 28.61 90.91 39.18"/><ellipse class="cls-3" cx="92.04" cy="28.86" rx="3.51" ry="3.65"/><path class="cls-2" d="M377.13,386.22c-1.71.13-3.39.39-3.39.39l-.5.09c-6.55,1.12-10.57,1.87-13.69,5.51-4.36,5.09-3.86,12.17-3.75,13.66.56,7.82,5.43,15.22,11.92,17.74,3.61,1.4,6.77.73,13-.48,9.37-1.81,10.29-4,19.43-6.47,9.93-2.66,14.95-2.63,21.64-2.88,10.22-.37,13.11.92,16.56-1.92,6.44-5.3,5.18-17.05,5.07-18-.21-1.82-1.28-10.75-7.72-14.86-4.8-3.06-10.1-1.88-17.45-.24-4,.89-5,1.61-7.83,2.68h0a14.28,14.28,0,0,1-4.31,1.39c-4.17.56-8.73,3.16-17,3.34C386.11,386.27,379.29,386.06,377.13,386.22Z" transform="translate(-338.18 -342.3)"/><path class="cls-4" d="M376.12,385.48c-1.66.12-3.31.37-3.31.37l-.49.08c-6.4,1.09-10.32,1.81-13.37,5.32-4.27,4.9-3.77,11.74-3.67,13.17.55,7.54,5.31,14.68,11.65,17.11,3.46,1.32,6.61.71,12.73-.47,9.17-1.75,10.08-3.89,19-6.24,9.79-2.58,14.65-2.54,21.14-2.77,10-.36,12.81.89,16.18-1.85,6.3-5.11,5.07-16.44,5-17.33-.22-1.76-1.26-10.37-7.55-14.33-4.69-3-9.87-1.81-17.05-.23-3.89.85-4.85,1.55-7.65,2.58h0c-7.87,3-12.66,4.75-17.81,5.1S378.2,385.32,376.12,385.48Z" transform="translate(-338.18 -342.3)"/><path class="cls-2" d="M390.82,413.05a2.7,2.7,0,0,1-2,2.39,2.73,2.73,0,0,1-3.09-1.54l-9.68-10.56,2,11.85a2.84,2.84,0,0,1-1.87,2.57,2.91,2.91,0,0,1-3.5-1.68L369,394.19a2.8,2.8,0,0,1,5.38-.9l9.37,10.48-2-11.72a2.75,2.75,0,0,1,5.38-.9Z" transform="translate(-338.18 -342.3)"/><path class="cls-2" d="M405.11,386a3.7,3.7,0,0,1,1,5.83l-5.86,1,3,18a3,3,0,0,1-2.12,2.62,3,3,0,0,1-3.31-1.72l-3-18-5.86,1a3.46,3.46,0,0,1-1-5.83Z" transform="translate(-338.18 -342.3)"/><path class="cls-2" d="M411.11,385.92l5.45,6.34a1.2,1.2,0,0,0,2-.35l3-7.73a3.06,3.06,0,0,1,5.27-.88l3.83,23a3.33,3.33,0,0,1-2.15,2.1,3.17,3.17,0,0,1-3.25-1.19L423.2,394.8,421,399.85a2.29,2.29,0,0,1-3.69.72l-4.2-4.08,2.07,12.37a2.65,2.65,0,0,1-5.13.86l-3.84-23a3.92,3.92,0,0,1,4.92-.82Z" transform="translate(-338.18 -342.3)"/><path class="cls-5" d="M375.31,416.22a3.13,3.13,0,0,1-1.68-2.34c0-1.6,1.94-2.7,1.77-3.83s-2.22-.72-2.4-1.9,2-2.93,1.81-4.12-2.4-.51-2.61-1.69,2-3,1.74-4.1-2.49-.11-2.7-1.1c-.09-.42.14-1.31,2.12-3.51" transform="translate(-338.18 -342.3)"/><path class="cls-5" d="M373.92,416.19c.86-1,1.64-2.21,1.49-3.14-.22-1.39-2.37-1.23-2.45-2.41s1.91-2.05,1.83-3.25-2.5-1.44-2.56-2.65,2.13-2,2.07-3.19-2.45-1.56-2.48-2.68,2.3-1.65,2.29-2.69c0-.56-.63-1.21-2.72-1.91" transform="translate(-338.18 -342.3)"/><path class="cls-5" d="M388.28,414.14c-.92-.48-2.07-1.26-2.09-2.34,0-1.6,2.41-2.7,2.2-3.83s-2.76-.72-3-1.9,2.5-2.94,2.25-4.12-3-.51-3.24-1.7,2.43-3,2.16-4.09-3.09-.11-3.36-1.1c-.11-.43.17-1.32,2.64-3.52" transform="translate(-338.18 -342.3)"/><path class="cls-5" d="M386.55,414.11c1.07-1,2-2.21,1.86-3.14-.28-1.4-3-1.24-3.06-2.41s2.38-2.05,2.28-3.25-3.1-1.44-3.18-2.66,2.65-2,2.58-3.18-3.06-1.57-3.09-2.68,2.86-1.66,2.84-2.7c0-.55-.78-1.2-3.37-1.91" transform="translate(-338.18 -342.3)"/><path class="cls-6" d="M401.32,411.82a3.13,3.13,0,0,1-1.9-2.17c-.18-1.59,1.71-2.87,1.44-4s-2.3-.51-2.59-1.67,1.76-3.11,1.45-4.27-2.47-.29-2.78-1.45,1.69-3.19,1.38-4.24-2.52.12-2.82-.84c-.14-.42,0-1.33,1.81-3.7" transform="translate(-338.18 -342.3)"/><path class="cls-6" d="M399.92,411.92c.78-1.09,1.46-2.35,1.22-3.26-.35-1.37-2.5-1-2.69-2.18s1.74-2.21,1.55-3.4-2.64-1.2-2.82-2.41,2-2.15,1.8-3.36-2.62-1.33-2.75-2.44,2.17-1.86,2.06-2.9c-.06-.55-.74-1.14-2.9-1.65" transform="translate(-338.18 -342.3)"/><path class="cls-6" d="M412.94,409.91a3.16,3.16,0,0,1-1.77-2.25c-.12-1.59,1.74-2.8,1.51-3.91s-2.2-.6-2.45-1.77,1.8-3,1.54-4.22-2.37-.37-2.64-1.54,1.73-3.14,1.47-4.19-2.44,0-2.7-.95c-.12-.42.06-1.32,1.86-3.62" transform="translate(-338.18 -342.3)"/><path class="cls-6" d="M411.59,410c.78-1.07,1.47-2.3,1.27-3.22-.29-1.38-2.38-1.11-2.53-2.27s1.75-2.16,1.61-3.35-2.52-1.3-2.65-2.51,2-2.08,1.84-3.29-2.48-1.43-2.57-2.54,2.15-1.78,2.08-2.82c0-.55-.69-1.17-2.76-1.75" transform="translate(-338.18 -342.3)"/><path class="cls-6" d="M428.43,407.25a3,3,0,0,1-1.82-2.18c-.13-1.59,1.79-2.87,1.55-4s-2.27-.51-2.52-1.67,1.85-3.12,1.58-4.28-2.44-.29-2.72-1.45,1.79-3.2,1.51-4.25-2.5.12-2.77-.84c-.12-.42.06-1.33,1.91-3.7" transform="translate(-338.18 -342.3)"/><path class="cls-6" d="M427,407.35c.81-1.09,1.52-2.36,1.32-3.27-.31-1.37-2.46-1-2.61-2.18s1.8-2.22,1.65-3.41-2.58-1.2-2.72-2.41,2-2.16,1.9-3.37-2.56-1.33-2.65-2.44,2.2-1.86,2.13-2.9c0-.55-.7-1.14-2.83-1.65" transform="translate(-338.18 -342.3)"/><path class="cls-6" d="M388.55,389.93c.53,1,1.19,1.91,1.88,1.88.91,0,.77-1.86,2.25-2.18,1.85-.4,3.94,2.07,6,1.73s1.76-2.76,3.37-2.93c1.11-.12,2.38.91,3.38,1.95" transform="translate(-338.18 -342.3)"/><path class="cls-6" d="M405.3,388.28c-1.37,2.12-2.67,2.74-3.75,2.78-2.17.07-3.45-2.23-5.37-2s-2.41,2.76-3.63,2.71-1.21-2.09-2.37-2.18c-.86-.07-1.83,1-2.63,2.1" transform="translate(-338.18 -342.3)"/><path class="cls-6" d="M411.93,390.78c0,1.21.16,2.53,1,3,1,.57,2.4-.58,3,0s-.54,2.62,0,3,1.53-1.19,3-1c1.13.14,1.62,1.2,2,1,.66-.35-.75-3.53,0-4,.32-.21,1,.13,2,1" transform="translate(-338.18 -342.3)"/><path class="cls-6" d="M421.93,389.78c.74,3.44.55,4.73,0,5-.82.39-2.47-1.44-3-1-.29.24.14.84,0,2s-.69,2-1,2c-.5-.08-.14-2.72-1-3-.66-.21-1.33,1.16-2,1-.46-.11-.93-.94-1-4" transform="translate(-338.18 -342.3)"/><path class="cls-6" d="M375.93,396.78q-.75,2.18,0,3c.78.86,2.38.13,3,1s-.63,2.15,0,3,2.46.1,3,1c.38.62-.33,1.29,0,2s1.3,1,3,1" transform="translate(-338.18 -342.3)"/><path class="cls-6" d="M382.93,409.78q1.76-3.22,1-4c-.81-.83-3.38.79-4,0s1.64-3.2,1-4-3.14.89-4,0,.83-3.06,0-4c-.55-.63-1.9-.36-3,0" transform="translate(-338.18 -342.3)"/></svg>