<svg id="图层_1" data-name="图层 1" xmlns="http://www.w3.org/2000/svg" xmlns:xlink="http://www.w3.org/1999/xlink" viewBox="0 0 128.27 118.42"><defs><style>.cls-1{fill:url(#未命名的渐变_3);}.cls-2{fill:#305fa2;}.cls-3{fill:#d8d9d9;}.cls-4{fill:#878787;}.cls-5{fill:#908c8c;}.cls-6{fill:#eaeaea;}.cls-7{fill:#75a7a9;}.cls-8{fill:#64a6a6;}.cls-9{fill:#4a8594;}.cls-10{fill:#fff;}.cls-11{fill:#efe7c5;}</style><radialGradient id="未命名的渐变_3" cx="84.84" cy="66.05" r="44.31" gradientUnits="userSpaceOnUse"><stop offset="0" stop-color="#31aee5" stop-opacity="0"/><stop offset="0.14" stop-color="#32aee4" stop-opacity="0.02"/><stop offset="0.28" stop-color="#36b0e2" stop-opacity="0.08"/><stop offset="0.42" stop-color="#3cb2df" stop-opacity="0.19"/><stop offset="0.57" stop-color="#45b6db" stop-opacity="0.34"/><stop offset="0.72" stop-color="#50bad5" stop-opacity="0.52"/><stop offset="0.86" stop-color="#5ebfce" stop-opacity="0.75"/><stop offset="1" stop-color="#6dc5c6"/></radialGradient></defs><title>NTM-DB</title><path class="cls-1" d="M64.11,19.66s20,14.52,38.59,4.76c0,0,2.17,19.94,24.28,30.35,0,0-23.63,58.1-74.14,57.67C52.84,112.44,23.78,76.85,64.11,19.66Z"/><path class="cls-2" d="M68.86,33.87s13.4,9.75,25.92,3.19c0,0,1.46,13.4,16.32,20.39,0,0-15.88,39-49.82,38.75C61.28,96.2,41.76,72.29,68.86,33.87Z"/><path class="cls-3" d="M25.65,32.85,28.57,14.7A9,9,0,0,1,38.7,7.15h0A9,9,0,0,1,46,17.5L43,35.65"/><path class="cls-4" d="M43.31,35.7l-.57-.09,2.93-18.16a8.87,8.87,0,0,0-1.49-6.52A8.32,8.32,0,0,0,32.31,9a8.88,8.88,0,0,0-3.45,5.73L25.93,32.9l-.57-.09,2.93-18.16A9.41,9.41,0,0,1,32,8.56a8.88,8.88,0,0,1,12.68,2,9.46,9.46,0,0,1,1.59,7Z"/><ellipse class="cls-5" cx="34.37" cy="34.12" rx="2.05" ry="9.11" transform="translate(-4.78 62.62) rotate(-80.85)"/><rect class="cls-6" x="31.45" y="12.45" width="0.88" height="14.69" rx="0.19" transform="translate(3.27 -4.49) rotate(8.49)"/><path class="cls-7" d="M31,52,15,61.22a8.94,8.94,0,0,1-12.23-3h0A8.94,8.94,0,0,1,6.27,46.05l15.92-9.19"/><path class="cls-8" d="M10.42,62.76a9.38,9.38,0,0,1-2.29-.28A8.83,8.83,0,0,1,1.73,51.4a9.45,9.45,0,0,1,4.39-5.6l15.93-9.19.29.5L6.41,46.3a8.87,8.87,0,0,0-4.12,5.26,8.23,8.23,0,0,0,6,10.36A8.89,8.89,0,0,0,14.88,61l15.93-9.2.29.5-15.93,9.2A9.56,9.56,0,0,1,10.42,62.76Z"/><ellipse class="cls-9" cx="26.44" cy="44.5" rx="2.05" ry="9.11" transform="translate(-18.71 19.18) rotate(-30)"/><rect class="cls-10" x="13.75" y="38.12" width="0.88" height="14.69" rx="0.19" transform="translate(46.47 10.44) rotate(60)"/><polygon class="cls-10" points="90.5 69.51 82.42 64.39 87.63 56.17 83.74 53.7 78.53 61.92 69.46 56.16 66.99 60.05 76.06 65.81 70.39 74.74 74.28 77.21 79.95 68.28 88.03 73.4 90.5 69.51"/><circle class="cls-11" cx="37.43" cy="40.25" r="1.29"/><circle class="cls-11" cx="38.16" cy="48.1" r="1.29"/><circle class="cls-11" cx="33.36" cy="54.2" r="1.29"/><circle class="cls-11" cx="48.38" cy="42.89" r="1.29"/><circle class="cls-11" cx="41.67" cy="56" r="1.29"/><circle class="cls-11" cx="33.44" cy="64.13" r="1.29"/><circle class="cls-11" cx="39.86" cy="62.21" r="1.29"/><circle class="cls-11" cx="36.67" cy="69.34" r="1.29"/><circle class="cls-11" cx="32.4" cy="72.12" r="1.29"/><circle class="cls-11" cx="30.87" cy="79.67" r="1.29"/><circle class="cls-11" cx="27.9" cy="86.82" r="1.29"/><circle class="cls-11" cx="37.02" cy="77.22" r="1.29"/></svg>