<svg id="图层_1" data-name="图层 1" xmlns="http://www.w3.org/2000/svg" xmlns:xlink="http://www.w3.org/1999/xlink" viewBox="0 0 128.27 118.42"><defs><style>.cls-1{fill:#305fa2;}.cls-2{fill:#70a2d6;}.cls-3{fill:url(#未命名的渐变_281);}.cls-4{fill:#91c763;}.cls-5{fill:url(#未命名的渐变_118);}.cls-6{fill:#e9c9a7;}.cls-7{fill:url(#未命名的渐变_118-2);}.cls-8{fill:#a5d28f;}.cls-9{fill:#fefdfc;}</style><linearGradient id="未命名的渐变_281" x1="5.12" y1="59.47" x2="70.5" y2="59.47" gradientUnits="userSpaceOnUse"><stop offset="0.3" stop-color="#6dbdd1"/><stop offset="0.58" stop-color="#62b9cf"/><stop offset="1" stop-color="#dbedf3"/></linearGradient><linearGradient id="未命名的渐变_118" x1="72.73" y1="15.72" x2="115.25" y2="15.72" gradientUnits="userSpaceOnUse"><stop offset="0" stop-color="#d2754c"/><stop offset="0.14" stop-color="#d9875d"/><stop offset="0.36" stop-color="#e29f75"/><stop offset="0.5" stop-color="#e5a87e"/><stop offset="0.64" stop-color="#e29f75"/><stop offset="0.87" stop-color="#dc885d"/><stop offset="1" stop-color="#d7784c"/></linearGradient><linearGradient id="未命名的渐变_118-2" x1="72.84" y1="40.08" x2="115.36" y2="40.08" xlink:href="#未命名的渐变_118"/></defs><title>NTM-DB</title><rect class="cls-1" x="73.05" y="95.75" width="42.42" height="14.8" rx="7.23"/><rect class="cls-1" x="72.93" y="71.83" width="42.53" height="14.84" rx="7.25"/><path class="cls-2" d="M108.05,88H80.35a8.72,8.72,0,1,1,0-17.43h27.7a8.72,8.72,0,0,1,0,17.43ZM80.35,73.17a6.12,6.12,0,1,0,0,12.23h27.7a6.12,6.12,0,0,0,0-12.23Z"/><path class="cls-2" d="M108.07,111.75H80.9a9,9,0,0,1-9.11-7.89,8.71,8.71,0,0,1,8.66-9.5h27.16a9,9,0,0,1,9.12,7.9A8.7,8.7,0,0,1,108.07,111.75ZM80.45,97a6.11,6.11,0,0,0-6,7.25,6.3,6.3,0,0,0,6.29,5h27a6.3,6.3,0,0,0,6.29-5,6.1,6.1,0,0,0-6-7.25Z"/><path class="cls-3" d="M69.45,80.33a1,1,0,0,0,0-2.1H52.82V89.92H32.94V60.61H69.45a1.05,1.05,0,0,0,0-2.1H30.84V72H18.36V29H39.53a1,1,0,0,0,.52-.16V41.42H69.44a1.05,1.05,0,1,0,0-2.1H42.15V16.91H69.44a1,1,0,0,0,0-2.1H40.05V27.09a1,1,0,0,0-.52-.16H16.26v22.8H6.17a1,1,0,0,0,0,2.1H16.26V74.1H30.84V92h22v12.11H69.45a1,1,0,0,0,0-2.1H54.92V80.33Z"/><rect class="cls-4" x="72.71" y="52.08" width="42.55" height="14.84" rx="7.25"/><rect class="cls-5" x="72.73" y="8.3" width="42.53" height="14.83" rx="7.25"/><path class="cls-6" d="M108,24.42H80.33A8.72,8.72,0,0,1,80.33,7H108a8.72,8.72,0,1,1,0,17.43ZM80.33,9.59a6.12,6.12,0,0,0,0,12.23H108a6.12,6.12,0,1,0,0-12.23Z"/><rect class="cls-7" x="72.84" y="32.66" width="42.53" height="14.83" rx="7.25"/><path class="cls-6" d="M108,48.9H80.33a8.72,8.72,0,0,1,0-17.44H108a8.72,8.72,0,0,1,0,17.44ZM80.33,34.06a6.12,6.12,0,0,0,0,12.24H108a6.12,6.12,0,1,0,0-12.24Z"/><path class="cls-8" d="M108,68.31H80.34a8.72,8.72,0,1,1,0-17.44H108a8.72,8.72,0,0,1,0,17.44ZM80.34,53.47a6.12,6.12,0,0,0,0,12.24H108a6.12,6.12,0,0,0,0-12.24Z"/><path class="cls-9" d="M81.2,18.06h-.06C79.33,18,78,15.6,78,15.5a.27.27,0,1,1,.47-.25s1.19,2.24,2.7,2.28h0c.81,0,1.59-.64,2.34-1.89a3.05,3.05,0,0,1,1.85-1.37,2.12,2.12,0,0,1,1.75.58c.88.75,1.63,1.06,2.06.85s.5-.63.47-1.28a.28.28,0,0,1,.26-.28.29.29,0,0,1,.28.25,1.77,1.77,0,0,1-.77,1.79c-.46.22-1.29.24-2.65-.93a1.63,1.63,0,0,0-1.31-.46A2.63,2.63,0,0,0,84,15.91C83.15,17.34,82.21,18.06,81.2,18.06Z"/><circle class="cls-9" cx="81.69" cy="14.43" r="0.81"/><circle class="cls-9" cx="98.27" cy="17.48" r="0.81"/><circle class="cls-9" cx="101.64" cy="14.64" r="0.52"/><path class="cls-9" d="M81.2,42.79h-.06c-1.81,0-3.1-2.46-3.15-2.56a.27.27,0,1,1,.47-.25s1.19,2.24,2.7,2.28h0c.81,0,1.59-.64,2.34-1.89A3.09,3.09,0,0,1,85.39,39a2.12,2.12,0,0,1,1.75.58c.88.75,1.63,1.06,2.06.85s.5-.63.47-1.28a.28.28,0,0,1,.26-.28.29.29,0,0,1,.28.26,1.76,1.76,0,0,1-.77,1.78c-.46.22-1.29.24-2.65-.92a1.64,1.64,0,0,0-1.31-.47A2.63,2.63,0,0,0,84,40.64C83.15,42.07,82.21,42.79,81.2,42.79Z"/><circle class="cls-9" cx="81.69" cy="39.16" r="0.81"/><circle class="cls-9" cx="98.27" cy="42.21" r="0.81"/><circle class="cls-9" cx="101.64" cy="39.37" r="0.52"/><path class="cls-9" d="M81.2,61.11h-.06c-1.81,0-3.1-2.45-3.15-2.56a.27.27,0,0,1,.11-.36.27.27,0,0,1,.36.12s1.19,2.23,2.7,2.27h0q1.22,0,2.34-1.89a3.09,3.09,0,0,1,1.85-1.37,2.1,2.1,0,0,1,1.75.59c.88.75,1.63,1.05,2.06.84s.5-.62.47-1.28a.28.28,0,0,1,.26-.28.29.29,0,0,1,.28.26,1.76,1.76,0,0,1-.77,1.78c-.46.22-1.29.24-2.65-.92a1.59,1.59,0,0,0-1.31-.46A2.59,2.59,0,0,0,84,59C83.15,60.39,82.21,61.11,81.2,61.11Z"/><circle class="cls-9" cx="81.69" cy="57.48" r="0.81"/><circle class="cls-9" cx="98.27" cy="60.53" r="0.81"/><circle class="cls-9" cx="101.64" cy="57.7" r="0.52"/><path class="cls-9" d="M81.2,81.28h-.06c-1.81,0-3.1-2.46-3.15-2.56a.27.27,0,1,1,.47-.25s1.19,2.23,2.7,2.27h0c.81,0,1.59-.63,2.34-1.88a3.05,3.05,0,0,1,1.85-1.37,2.12,2.12,0,0,1,1.75.58c.88.75,1.63,1.06,2.06.85s.5-.63.47-1.29a.27.27,0,0,1,.26-.27.29.29,0,0,1,.28.25,1.77,1.77,0,0,1-.77,1.79c-.46.22-1.29.24-2.65-.93A1.63,1.63,0,0,0,85.48,78,2.63,2.63,0,0,0,84,79.13C83.15,80.56,82.21,81.28,81.2,81.28Z"/><circle class="cls-9" cx="81.69" cy="77.65" r="0.81"/><circle class="cls-9" cx="98.27" cy="80.7" r="0.81"/><circle class="cls-9" cx="101.64" cy="77.86" r="0.52"/><path class="cls-9" d="M81.2,105.15h-.06c-1.81-.05-3.1-2.46-3.15-2.56a.27.27,0,1,1,.47-.25s1.19,2.23,2.7,2.27h0c.81,0,1.59-.63,2.34-1.88a3.05,3.05,0,0,1,1.85-1.37,2.12,2.12,0,0,1,1.75.58c.88.75,1.63,1.06,2.06.85s.5-.63.47-1.29a.27.27,0,0,1,.26-.27.29.29,0,0,1,.28.25,1.77,1.77,0,0,1-.77,1.79c-.46.22-1.29.24-2.65-.93a1.63,1.63,0,0,0-1.31-.46A2.63,2.63,0,0,0,84,103C83.15,104.42,82.21,105.15,81.2,105.15Z"/><circle class="cls-9" cx="81.69" cy="101.52" r="0.81"/><circle class="cls-9" cx="98.27" cy="104.57" r="0.81"/><circle class="cls-9" cx="101.64" cy="101.73" r="0.52"/></svg>