<svg id="图层_1" data-name="图层 1" xmlns="http://www.w3.org/2000/svg" viewBox="0 0 128.27 118.42"><defs><style>.cls-1{fill:#6b92c3;}.cls-2{fill:#8db6e1;}.cls-3{fill:#e1b566;}.cls-4{fill:#e9c9a7;}.cls-5{fill:#6dbdd1;}.cls-6{fill:#95d3dc;}.cls-7{fill:#fefdfc;}.cls-8{fill:#305fa2;}.cls-9{fill:#70a2d6;}.cls-10{fill:#91c763;}.cls-11{fill:#a5d28f;}</style></defs><title>NTM-DB</title><rect class="cls-1" x="63.55" y="42.53" width="45.18" height="13.78" rx="6.89" transform="translate(-9.66 23.26) rotate(-14.57)"/><path class="cls-2" d="M102.46,53.76,74,61.16c-4.94,1.29-9.87-1.18-11-5.51s2-8.88,6.93-10.17l28.47-7.4c4.94-1.28,9.87,1.19,11,5.51S107.4,52.48,102.46,53.76ZM70.52,47.82c-3.46.91-5.64,4.11-4.86,7.14s4.26,4.77,7.72,3.86l28.47-7.4c3.47-.9,5.65-4.1,4.86-7.13s-4.25-4.77-7.72-3.87Z"/><rect class="cls-3" x="86.51" y="77.68" width="45.18" height="13.78" rx="6.89" transform="translate(-4.95 162.33) rotate(-72.07)"/><path class="cls-4" d="M121.53,73.13l-9.06,28c-1.57,4.86-6.31,7.69-10.56,6.32S95.49,101,97.06,96.13l9.06-28c1.57-4.86,6.3-7.7,10.55-6.32S123.1,68.27,121.53,73.13ZM99.36,96.88c-1.11,3.41.42,7,3.4,7.93s6.31-1,7.41-4.43l9.06-28c1.1-3.41-.43-7-3.41-7.93s-6.3,1-7.41,4.43Z"/><rect class="cls-5" x="5.72" y="54.03" width="45.18" height="13.78" rx="6.89" transform="translate(28.64 -6.25) rotate(25.21)"/><path class="cls-6" d="M38.08,74.7,11.46,62.17C6.84,60,4.63,54.94,6.53,50.9s7.21-5.56,11.83-3.39L45,60c4.62,2.18,6.84,7.23,4.93,11.27S42.7,76.87,38.08,74.7Zm-20.75-25c-3.24-1.53-7-.46-8.3,2.38s.22,6.38,3.46,7.91L39.1,72.51c3.25,1.53,7,.46,8.31-2.37s-.22-6.39-3.46-7.91Z"/><path class="cls-7" d="M15.21,58.28l-.08,0c-2.4-1.26-2.54-5.32-2.54-5.49a.4.4,0,0,1,.38-.41.4.4,0,0,1,.41.39s.13,3.76,2.12,4.8l.06,0c1.07.53,2.54.19,4.36-1A4.52,4.52,0,0,1,23.29,56a3.14,3.14,0,0,1,2,1.92c.68,1.58,1.49,2.48,2.21,2.49.53,0,1.07-.51,1.46-1.41a.4.4,0,0,1,.53-.2.41.41,0,0,1,.2.52c-.53,1.22-1.32,1.88-2.2,1.88s-1.87-.52-2.93-3a2.45,2.45,0,0,0-1.46-1.48,3.84,3.84,0,0,0-2.71.53C18.28,58.59,16.55,58.94,15.21,58.28Z"/><circle class="cls-7" cx="18.24" cy="53.75" r="1.2"/><circle class="cls-7" cx="38.42" cy="68.69" r="1.2"/><circle class="cls-7" cx="44.78" cy="67.09" r="0.77"/><rect class="cls-8" x="31.93" y="92.21" width="45.18" height="13.78" rx="6.89" transform="translate(-26.95 20.64) rotate(-17.26)"/><path class="cls-9" d="M71,102.66l-28.09,8.73c-4.88,1.52-9.92-.72-11.25-5s1.57-9,6.44-10.49L66.22,87.2c4.88-1.52,9.93.72,11.25,5S75.91,101.15,71,102.66ZM38.85,98.23c-3.42,1.07-5.45,4.37-4.52,7.36s4.47,4.56,7.89,3.5l28.09-8.73C73.74,99.29,75.76,96,74.83,93s-4.47-4.56-7.89-3.5Z"/><path class="cls-7" d="M42.87,105.92l-.09,0c-2.61.7-5.46-2.19-5.58-2.32a.4.4,0,0,1,0-.56.41.41,0,0,1,.57,0s2.64,2.68,4.81,2.1h.06q1.72-.52,2.54-3.69a4.51,4.51,0,0,1,2.06-2.74,3.15,3.15,0,0,1,2.74.09c1.57.7,2.78.82,3.31.34s.44-1.11.13-2a.41.41,0,0,1,.25-.51.43.43,0,0,1,.5.25c.43,1.26.31,2.28-.34,2.87s-1.74.89-4.17-.19a2.4,2.4,0,0,0-2.08-.11,3.89,3.89,0,0,0-1.64,2.23C45.34,104.06,44.3,105.49,42.87,105.92Z"/><circle class="cls-7" cx="42.03" cy="100.53" r="1.2"/><circle class="cls-7" cx="66.99" cy="97.86" r="1.2"/><circle class="cls-7" cx="70.59" cy="92.38" r="0.77"/><rect class="cls-10" x="35.89" y="13.2" width="45.18" height="13.78" rx="6.89" transform="translate(-3.34 21.3) rotate(-20.08)"/><path class="cls-11" d="M75.15,22.84,47.52,32.94c-4.8,1.76-10-.23-11.48-4.42s1.12-9,5.92-10.79L69.58,7.63c4.8-1.76,10,.23,11.48,4.42S79.94,21.09,75.15,22.84ZM42.78,20c-3.36,1.23-5.22,4.62-4.15,7.57s4.69,4.33,8.06,3.1l27.63-10.1C77.68,19.34,79.54,16,78.47,13s-4.69-4.33-8.06-3.1Z"/><path class="cls-7" d="M47.16,27.54l-.08,0c-2.6.77-5.53-2-5.65-2.16a.4.4,0,0,1,0-.56.39.39,0,0,1,.56,0s2.72,2.6,4.87,2l.06,0c1.14-.37,2-1.63,2.43-3.75a4.61,4.61,0,0,1,2-2.8,3.13,3.13,0,0,1,2.74,0c1.59.66,2.8.74,3.32.25s.41-1.12.07-2a.4.4,0,0,1,.23-.51.42.42,0,0,1,.51.24c.47,1.24.38,2.26-.26,2.88S56.23,22,53.77,21a2.43,2.43,0,0,0-2.07-.05,3.83,3.83,0,0,0-1.58,2.27C49.58,25.61,48.58,27.07,47.16,27.54Z"/><circle class="cls-7" cx="46.17" cy="22.17" r="1.2"/><circle class="cls-7" cx="71.05" cy="18.8" r="1.2"/><circle class="cls-7" cx="74.49" cy="13.22" r="0.77"/><path class="cls-7" d="M74.6,56l-.08,0c-2.64.62-5.41-2.35-5.53-2.47A.41.41,0,0,1,69,53a.4.4,0,0,1,.56,0s2.57,2.76,4.75,2.23h.06c1.16-.31,2-1.52,2.64-3.61A4.61,4.61,0,0,1,79.17,49a3.15,3.15,0,0,1,2.74.17c1.55.75,2.75.9,3.3.43s.47-1.09.18-2a.39.39,0,0,1,.26-.49.43.43,0,0,1,.5.26,2.62,2.62,0,0,1-.42,2.86c-.58.49-1.76.84-4.17-.31a2.35,2.35,0,0,0-2.06-.16,3.87,3.87,0,0,0-1.71,2.18C77.12,54.23,76,55.63,74.6,56Z"/><circle class="cls-7" cx="73.91" cy="50.61" r="1.2"/><circle class="cls-7" cx="98.94" cy="48.63" r="1.2"/><circle class="cls-7" cx="102.69" cy="43.26" r="0.77"/><path class="cls-7" d="M109,97.82l0,.08c-.94,2.54-5,3.2-5.12,3.23a.4.4,0,0,1-.45-.33.38.38,0,0,1,.33-.45s3.72-.62,4.49-2.73l0-.05c.39-1.14-.13-2.55-1.54-4.2a4.57,4.57,0,0,1-1.06-3.27,3.16,3.16,0,0,1,1.66-2.18c1.48-.88,2.27-1.8,2.18-2.52-.06-.53-.64-1-1.58-1.27a.4.4,0,0,1-.27-.49.42.42,0,0,1,.49-.27c1.28.37,2,1.06,2.15,1.94s-.27,1.93-2.57,3.29a2.43,2.43,0,0,0-1.27,1.63,3.87,3.87,0,0,0,.87,2.63C108.87,94.73,109.44,96.4,109,97.82Z"/><circle class="cls-7" cx="104.08" cy="95.4" r="1.2"/><circle class="cls-7" cx="116.29" cy="73.46" r="1.2"/><circle class="cls-7" cx="113.89" cy="67.36" r="0.77"/></svg>