<svg id="图层_1" data-name="图层 1" xmlns="http://www.w3.org/2000/svg" xmlns:xlink="http://www.w3.org/1999/xlink" viewBox="0 0 128.27 118.42"><defs><style>.cls-1{fill:url(#未命名的渐变_377);}.cls-2{fill:url(#未命名的渐变_371);}.cls-3{fill:#fff;}.cls-4{fill:#91c763;}</style><radialGradient id="未命名的渐变_377" cx="-1203.91" cy="59.32" r="41.06" gradientTransform="matrix(-1, 0, 0, 1, -1154.3, 0)" gradientUnits="userSpaceOnUse"><stop offset="0" stop-color="#aecfed" stop-opacity="0.8"/><stop offset="0.35" stop-color="#a5cee8" stop-opacity="0.83"/><stop offset="0.72" stop-color="#8ccad8" stop-opacity="0.91"/><stop offset="1" stop-color="#6dc5c6"/></radialGradient><radialGradient id="未命名的渐变_371" cx="91.78" cy="75.52" r="28.78" gradientUnits="userSpaceOnUse"><stop offset="0" stop-color="#e6e63a" stop-opacity="0.8"/><stop offset="1" stop-color="#ee963f"/></radialGradient></defs><title>NTM-DB</title><path class="cls-1" d="M20,106.77a2.44,2.44,0,0,0,2.4,2.48h0a2.45,2.45,0,0,0,2.44-2.41c0-.42.06-.81.1-1.21H74.29c0,.4.09.79.1,1.21a2.45,2.45,0,0,0,2.44,2.41h0a2.45,2.45,0,0,0,2.41-2.48c-.17-13-11.1-18.89-23-23.73,10.64-4.43,20.18-9.86,21.45-20.83,1.82-15.64-9-22.91-20.53-27.49a69.91,69.91,0,0,0,8.58-3.29c12.19-5.94,13-15.85,11.71-20.27a2.45,2.45,0,0,0-4.7,1.35A7.9,7.9,0,0,1,73,14.25H26.26a7.67,7.67,0,0,1,.22-1.74,2.45,2.45,0,0,0-4.7-1.35c-1.28,4.42-.48,14.33,11.71,20.27a69.91,69.91,0,0,0,8.58,3.29C30.57,39.3,19.72,46.57,21.54,62.21,22.81,73.18,32.35,78.61,43,83,31.05,87.88,20.12,93.74,20,106.77ZM70.28,49.63a15.94,15.94,0,0,1,2.23,5.23H26.71a15.73,15.73,0,0,1,2.23-5.23ZM72,65.12H27.26a13.38,13.38,0,0,1-.87-3.47c-.08-.66-.1-1.28-.12-1.91H73c0,.63,0,1.25-.12,1.91A13.38,13.38,0,0,1,72,65.12ZM29.85,23a13.32,13.32,0,0,1-2.63-3.82H72A13.32,13.32,0,0,1,69.37,23ZM52.47,31.1,49.61,32l-2.86-.93C43.36,30,40.16,29,37.46,27.85h24.3C59.06,29,55.85,30,52.47,31.1ZM65.64,44.74H33.58c4.37-3.35,10.17-5.61,16-7.57C55.47,39.13,61.27,41.39,65.64,44.74Zm-16,35.69C42,77.46,34.85,74.49,30.51,70h38.2C64.37,74.49,57.21,77.46,49.61,80.43ZM63.91,92H35.31a108.21,108.21,0,0,1,14.3-6.36A108.21,108.21,0,0,1,63.91,92Zm-37.67,8.71a15.35,15.35,0,0,1,2.67-3.83h41.4A15.35,15.35,0,0,1,73,100.75Z"/><path class="cls-2" d="M92.06,44.93a22.79,22.79,0,0,1,18.58,18.6c1.29,7.82-2,15.73-7,20.69l13.48,17.14c1.26,1.6,1.58,3.25,0,4.51h0c-1.6,1.26-3.1.29-4.36-1.31L99.35,87.49c-.16-.2-1.24.43-1.46.54a22.82,22.82,0,1,1-5.83-43.1Z"/><path class="cls-3" d="M69.45,67.42A18.5,18.5,0,1,0,88,48.91,18.52,18.52,0,0,0,69.45,67.42Z"/><path class="cls-4" d="M92.74,70.74a1.09,1.09,0,0,0,1,.79h10.37a1.08,1.08,0,0,0,0-2.16h-9a.76.76,0,0,1-.73-.55L90.62,55.05a.71.71,0,0,0-.68-.52h0a.71.71,0,0,0-.68.52L84.4,73l-3-9.39a.61.61,0,0,0-.43-.42.63.63,0,0,0-.59.13l-7.54,6.54a1.15,1.15,0,0,0-.37.85,1.19,1.19,0,0,0,1.95.93l5.69-5.14,3.67,10.87a.7.7,0,0,0,.67.48h0a.69.69,0,0,0,.66-.52L89.9,60.67Z"/></svg>