<svg id="图层_1" data-name="图层 1" xmlns="http://www.w3.org/2000/svg" xmlns:xlink="http://www.w3.org/1999/xlink" viewBox="0 0 128.27 118.42"><defs><style>.cls-1{opacity:0.38;fill:url(#Degradado_sin_nombre_54);}.cls-2{fill:url(#未命名的渐变_267);}.cls-3{fill:url(#linear-gradient);}.cls-4{fill:url(#linear-gradient-2);}.cls-5{fill:url(#未命名的渐变_363);}.cls-6{fill:#4ebec6;}.cls-7{fill:url(#未命名的渐变_363-2);}.cls-8{fill:url(#未命名的渐变_356);}.cls-9{fill:url(#未命名的渐变_363-3);}.cls-10{fill:url(#未命名的渐变_354);}.cls-11{fill:url(#未命名的渐变_363-4);}.cls-12{fill:url(#未命名的渐变_352);}.cls-13{fill:url(#未命名的渐变_363-5);}.cls-14{fill:url(#未命名的渐变_353);}.cls-15{fill:url(#未命名的渐变_363-6);}.cls-16{fill:#d89327;}.cls-17{fill:url(#未命名的渐变_363-7);}.cls-18{fill:#67b72e;}.cls-19{fill:url(#未命名的渐变_363-8);}.cls-20{fill:#ac4796;}</style><radialGradient id="Degradado_sin_nombre_54" cx="39.83" cy="31.41" r="66.18" gradientTransform="translate(61.46 -29.53) rotate(45)" gradientUnits="userSpaceOnUse"><stop offset="0" stop-color="#fff" stop-opacity="0"/><stop offset="0.38" stop-color="#feffff" stop-opacity="0.01"/><stop offset="0.52" stop-color="#fbfdfe" stop-opacity="0.04"/><stop offset="0.62" stop-color="#f6fbfc" stop-opacity="0.09"/><stop offset="0.7" stop-color="#eef8f9" stop-opacity="0.17"/><stop offset="0.77" stop-color="#e4f4f6" stop-opacity="0.27"/><stop offset="0.83" stop-color="#d8eff2" stop-opacity="0.39"/><stop offset="0.88" stop-color="#cae8ed" stop-opacity="0.54"/><stop offset="0.93" stop-color="#b9e1e7" stop-opacity="0.71"/><stop offset="0.98" stop-color="#a6d9e1" stop-opacity="0.9"/><stop offset="1" stop-color="#9cd5dd"/></radialGradient><radialGradient id="未命名的渐变_267" cx="66.37" cy="59.43" r="50.62" gradientTransform="translate(61.46 -29.53) rotate(45)" gradientUnits="userSpaceOnUse"><stop offset="0" stop-color="#fff" stop-opacity="0"/><stop offset="0.39" stop-color="#fdfeff" stop-opacity="0.01"/><stop offset="0.53" stop-color="#f5fcfd" stop-opacity="0.04"/><stop offset="0.62" stop-color="#e7f8fb" stop-opacity="0.1"/><stop offset="0.7" stop-color="#d2f2f8" stop-opacity="0.17"/><stop offset="0.77" stop-color="#b8ebf4" stop-opacity="0.28"/><stop offset="0.83" stop-color="#98e1ee" stop-opacity="0.4"/><stop offset="0.89" stop-color="#71d6e8" stop-opacity="0.56"/><stop offset="0.94" stop-color="#44cae1" stop-opacity="0.73"/><stop offset="0.98" stop-color="#13bcd9" stop-opacity="0.92"/><stop offset="1" stop-color="#00b6d6"/></radialGradient><linearGradient id="linear-gradient" x1="43.27" y1="16.57" x2="90.47" y2="104.12" gradientUnits="userSpaceOnUse"><stop offset="0" stop-color="#989594"/><stop offset="0.14" stop-color="#b8b6b6"/><stop offset="0.16" stop-color="#c2c1c1"/><stop offset="0.25" stop-color="#dddcdc"/><stop offset="0.34" stop-color="#f0efef"/><stop offset="0.43" stop-color="#fbfbfb"/><stop offset="0.52" stop-color="#fff"/><stop offset="0.6" stop-color="#fbfafa"/><stop offset="0.68" stop-color="#ededed"/><stop offset="0.77" stop-color="#d7d7d7"/><stop offset="0.86" stop-color="#b9b8b8"/><stop offset="0.96" stop-color="#929190"/><stop offset="1" stop-color="#7e7d7c"/></linearGradient><linearGradient id="linear-gradient-2" x1="17.24" y1="96.83" x2="119.26" y2="19.17" xlink:href="#linear-gradient"/><radialGradient id="未命名的渐变_363" cx="66.21" cy="25.39" r="7.94" gradientUnits="userSpaceOnUse"><stop offset="0" stop-color="#c2d6ef" stop-opacity="0"/><stop offset="0.37" stop-color="#bccfe3" stop-opacity="0.36"/><stop offset="1" stop-color="#b1c3cd"/></radialGradient><radialGradient id="未命名的渐变_363-2" cx="44.22" cy="38.04" r="9.05" xlink:href="#未命名的渐变_363"/><linearGradient id="未命名的渐变_356" x1="41.36" y1="38.04" x2="47.08" y2="38.04" gradientUnits="userSpaceOnUse"><stop offset="0" stop-color="#d2754c"/><stop offset="1" stop-color="#d7784c"/></linearGradient><radialGradient id="未命名的渐变_363-3" cx="35.51" cy="64.55" r="9.77" xlink:href="#未命名的渐变_363"/><linearGradient id="未命名的渐变_354" x1="32.42" y1="64.55" x2="38.6" y2="64.55" gradientUnits="userSpaceOnUse"><stop offset="0" stop-color="#dbc25e"/><stop offset="0.2" stop-color="#ddc55f"/><stop offset="1" stop-color="#e2ce60"/></linearGradient><radialGradient id="未命名的渐变_363-4" cx="52.31" cy="87.84" r="9.2" xlink:href="#未命名的渐变_363"/><linearGradient id="未命名的渐变_352" x1="49.4" y1="87.84" x2="55.21" y2="87.84" gradientUnits="userSpaceOnUse"><stop offset="0" stop-color="#00849c"/><stop offset="0.32" stop-color="#17839d"/><stop offset="0.74" stop-color="#2f819f"/><stop offset="1" stop-color="#38819f"/></linearGradient><radialGradient id="未命名的渐变_363-5" cx="81.33" cy="89.3" r="8.65" xlink:href="#未命名的渐变_363"/><linearGradient id="未命名的渐变_353" x1="78.6" y1="89.3" x2="84.07" y2="89.3" gradientUnits="userSpaceOnUse"><stop offset="0" stop-color="#229e55"/><stop offset="1" stop-color="#3d8f7e"/></linearGradient><radialGradient id="未命名的渐变_363-6" cx="91.44" cy="38.25" r="8.96" xlink:href="#未命名的渐变_363"/><radialGradient id="未命名的渐变_363-7" cx="96.67" cy="65.26" r="10.01" xlink:href="#未命名的渐变_363"/><radialGradient id="未命名的渐变_363-8" cx="66.57" cy="56.37" r="10.01" xlink:href="#未命名的渐变_363"/></defs><title>NTM-DB</title><circle class="cls-1" cx="66.37" cy="59.43" r="50.62" transform="translate(-22.58 64.34) rotate(-45)"/><circle class="cls-2" cx="66.37" cy="59.43" r="50.62" transform="translate(-22.58 64.34) rotate(-45)"/><path class="cls-3" d="M66.37,7a52.44,52.44,0,1,0,52.44,52.44A52.41,52.41,0,0,0,66.37,7Zm0,102.65a50.21,50.21,0,1,1,50.22-50.21A50.21,50.21,0,0,1,66.37,109.64Z"/><path class="cls-4" d="M66.37,9.22a50.21,50.21,0,1,0,50.22,50.21A50.21,50.21,0,0,0,66.37,9.22Zm0,98.6a48.39,48.39,0,1,1,48.39-48.39A48.39,48.39,0,0,1,66.37,107.82Z"/><circle class="cls-5" cx="66.21" cy="25.39" r="7.94"/><circle class="cls-6" cx="66.21" cy="25.39" r="2.51"/><circle class="cls-7" cx="44.22" cy="38.04" r="9.05"/><circle class="cls-8" cx="44.22" cy="38.04" r="2.86"/><circle class="cls-9" cx="35.51" cy="64.55" r="9.77"/><circle class="cls-10" cx="35.51" cy="64.55" r="3.09"/><circle class="cls-11" cx="52.31" cy="87.84" r="9.2"/><circle class="cls-12" cx="52.31" cy="87.84" r="2.91"/><circle class="cls-13" cx="81.33" cy="89.3" r="8.65"/><circle class="cls-14" cx="81.33" cy="89.3" r="2.73"/><circle class="cls-15" cx="91.44" cy="38.25" r="8.96"/><circle class="cls-16" cx="91.44" cy="38.25" r="2.83"/><circle class="cls-17" cx="96.67" cy="65.26" r="10.01"/><circle class="cls-18" cx="96.67" cy="65.26" r="3.17"/><circle class="cls-19" cx="66.57" cy="56.37" r="10.01"/><circle class="cls-20" cx="66.57" cy="56.37" r="3.17"/></svg>