<svg id="图层_1" data-name="图层 1" xmlns="http://www.w3.org/2000/svg" xmlns:xlink="http://www.w3.org/1999/xlink" viewBox="0 0 128.27 118.42"><defs><style>.cls-1{fill:#c3c2c0;}.cls-2{fill:#f1c261;}.cls-3{fill:url(#未命名的渐变_5);}.cls-4{fill:#27b076;}.cls-5{fill:url(#未命名的渐变_2);}.cls-6{fill:#4e67b0;}.cls-7{fill:url(#未命名的渐变_3);}.cls-8{fill:url(#未命名的渐变_5-2);}.cls-9{fill:url(#未命名的渐变_3-2);}.cls-10{fill:url(#未命名的渐变_5-3);}.cls-11{fill:#b5c3dc;}.cls-12{fill:url(#Degradado_sin_nombre_54);}.cls-13,.cls-15,.cls-17,.cls-19{opacity:0.38;}.cls-13{fill:url(#Degradado_sin_nombre_54-2);}.cls-14{fill:url(#Degradado_sin_nombre_54-3);}.cls-15{fill:url(#Degradado_sin_nombre_54-4);}.cls-16{fill:url(#Degradado_sin_nombre_54-5);}.cls-17{fill:url(#Degradado_sin_nombre_54-6);}.cls-18{fill:url(#Degradado_sin_nombre_54-7);}.cls-19{fill:url(#Degradado_sin_nombre_54-8);}</style><radialGradient id="未命名的渐变_5" cx="-19.76" cy="-274.81" r="10.96" gradientTransform="matrix(-0.9, -0.44, 0.45, -0.92, 218.32, -174.2)" gradientUnits="userSpaceOnUse"><stop offset="0" stop-color="#e6e63a" stop-opacity="0"/><stop offset="1" stop-color="#ee963f"/></radialGradient><radialGradient id="未命名的渐变_2" cx="7.83" cy="-318.93" r="5.36" gradientTransform="matrix(-0.87, -0.43, 0.45, -0.92, 202.2, -182.17)" gradientUnits="userSpaceOnUse"><stop offset="0" stop-color="#31aee5" stop-opacity="0"/><stop offset="1" stop-color="#a6d398"/></radialGradient><radialGradient id="未命名的渐变_3" cx="38.84" cy="-303.6" r="10.22" gradientTransform="matrix(-0.87, -0.43, 0.45, -0.92, 202.2, -182.17)" gradientUnits="userSpaceOnUse"><stop offset="0" stop-color="#31aee5" stop-opacity="0"/><stop offset="0.14" stop-color="#32aee4" stop-opacity="0.02"/><stop offset="0.28" stop-color="#36b0e2" stop-opacity="0.08"/><stop offset="0.42" stop-color="#3cb2df" stop-opacity="0.19"/><stop offset="0.57" stop-color="#45b6db" stop-opacity="0.34"/><stop offset="0.72" stop-color="#50bad5" stop-opacity="0.52"/><stop offset="0.86" stop-color="#5ebfce" stop-opacity="0.75"/><stop offset="1" stop-color="#6dc5c6"/></radialGradient><radialGradient id="未命名的渐变_5-2" cx="-29.92" cy="-293.86" r="5.77" gradientTransform="matrix(-0.87, -0.43, 0.45, -0.92, 202.2, -182.17)" xlink:href="#未命名的渐变_5"/><radialGradient id="未命名的渐变_3-2" cx="-11.79" cy="-249.88" r="10.22" xlink:href="#未命名的渐变_3"/><radialGradient id="未命名的渐变_5-3" cx="10.72" cy="-280.8" r="16.36" gradientTransform="matrix(-0.87, -0.43, 0.45, -0.92, 202.2, -182.17)" xlink:href="#未命名的渐变_5"/><radialGradient id="Degradado_sin_nombre_54" cx="41.15" cy="45.42" r="10.1" gradientUnits="userSpaceOnUse"><stop offset="0" stop-color="#fff" stop-opacity="0"/><stop offset="0.38" stop-color="#feffff" stop-opacity="0.01"/><stop offset="0.52" stop-color="#fbfdfe" stop-opacity="0.04"/><stop offset="0.62" stop-color="#f6fbfc" stop-opacity="0.09"/><stop offset="0.7" stop-color="#eef8f9" stop-opacity="0.17"/><stop offset="0.77" stop-color="#e4f4f6" stop-opacity="0.27"/><stop offset="0.83" stop-color="#d8eff2" stop-opacity="0.39"/><stop offset="0.88" stop-color="#cae8ed" stop-opacity="0.54"/><stop offset="0.93" stop-color="#b9e1e7" stop-opacity="0.71"/><stop offset="0.98" stop-color="#a6d9e1" stop-opacity="0.9"/><stop offset="1" stop-color="#9cd5dd"/></radialGradient><radialGradient id="Degradado_sin_nombre_54-2" cx="35.85" cy="39.83" r="13.21" xlink:href="#Degradado_sin_nombre_54"/><radialGradient id="Degradado_sin_nombre_54-3" cx="12.54" cy="46.41" r="5.28" xlink:href="#Degradado_sin_nombre_54"/><radialGradient id="Degradado_sin_nombre_54-4" cx="9.78" cy="43.49" r="6.9" xlink:href="#Degradado_sin_nombre_54"/><radialGradient id="Degradado_sin_nombre_54-5" cx="25.17" cy="256.62" r="5.28" gradientTransform="translate(-88.02 -217.78) rotate(-21.1)" xlink:href="#Degradado_sin_nombre_54"/><radialGradient id="Degradado_sin_nombre_54-6" cx="22.4" cy="253.7" r="6.9" gradientTransform="translate(-88.02 -217.78) rotate(-21.1)" xlink:href="#Degradado_sin_nombre_54"/><radialGradient id="Degradado_sin_nombre_54-7" cx="99.08" cy="51.99" r="10.22" xlink:href="#Degradado_sin_nombre_54"/><radialGradient id="Degradado_sin_nombre_54-8" cx="93.72" cy="46.33" r="13.36" xlink:href="#Degradado_sin_nombre_54"/></defs><title>NTM-DB</title><rect class="cls-1" x="32.88" y="12.19" width="1.03" height="30.39" transform="translate(-7.59 13.78) rotate(-20.98)"/><rect class="cls-1" x="26.54" y="34.95" width="1.03" height="22.57" transform="translate(-19.3 73.1) rotate(-89.76)"/><rect class="cls-1" x="50.82" y="44.75" width="1.03" height="22.57" transform="translate(-24.6 53.02) rotate(-45.23)"/><rect class="cls-1" x="87.4" y="54.95" width="1.03" height="48.84" transform="translate(-20.14 127.87) rotate(-66.25)"/><rect class="cls-1" x="31.96" y="76.4" width="22.57" height="1.03" transform="translate(-18.12 13.51) rotate(-14.72)"/><rect class="cls-1" x="39.6" y="89.01" width="38.33" height="1.03" transform="translate(-47.11 105.57) rotate(-65.33)"/><path class="cls-2" d="M116.85,77.12a11.3,11.3,0,0,1,5.33,12.41c-2.12,7.76-10.56,9.79-16.11,6.57-7.27-4.22-6.38-11.22-4.46-15.1A11,11,0,0,1,116.85,77.12Z"/><path class="cls-3" d="M116.85,77.12a11.3,11.3,0,0,1,5.33,12.41c-2.12,7.76-10.56,9.79-16.11,6.57-7.27-4.22-6.38-11.22-4.46-15.1A11,11,0,0,1,116.85,77.12Z"/><circle class="cls-4" cx="50.77" cy="106.94" r="5.3"/><path class="cls-5" d="M53.42,102.31a5.43,5.43,0,0,1,2.47,6,5.29,5.29,0,0,1-7.73,3.29c-3.44-2-3-5.42-2-7.32A5.27,5.27,0,0,1,53.42,102.31Z"/><circle class="cls-6" cx="30.83" cy="79.55" r="10.15" transform="translate(-54.14 71.92) rotate(-63.68)"/><path class="cls-7" d="M35.87,70.75a10.31,10.31,0,0,1,4.71,11.44,10.09,10.09,0,0,1-14.73,6.28c-6.56-3.83-5.68-10.33-3.89-14A10,10,0,0,1,35.87,70.75Z"/><rect class="cls-1" x="81.44" y="68.02" width="1.03" height="37.27" transform="translate(-37.12 79.81) rotate(-43.3)"/><path class="cls-2" d="M97.75,95.17a5.83,5.83,0,0,1,2.65,6.46,5.69,5.69,0,0,1-8.31,3.54c-3.7-2.16-3.2-5.83-2.19-7.87A5.67,5.67,0,0,1,97.75,95.17Z"/><path class="cls-8" d="M97.75,95.17a5.83,5.83,0,0,1,2.65,6.46,5.69,5.69,0,0,1-8.31,3.54c-3.7-2.16-3.2-5.83-2.19-7.87A5.67,5.67,0,0,1,97.75,95.17Z"/><rect class="cls-1" x="73.75" y="58.56" width="25.04" height="1.03" transform="translate(-18.2 54.83) rotate(-32.08)"/><circle class="cls-6" cx="99.14" cy="52.02" r="10.15" transform="translate(8.56 117.83) rotate(-63.68)"/><path class="cls-9" d="M104.18,43.22a10.31,10.31,0,0,1,4.71,11.44,10.08,10.08,0,0,1-14.73,6.28C87.59,57.12,88.48,50.61,90.27,47A10,10,0,0,1,104.18,43.22Z"/><path class="cls-2" d="M73.68,56.61a16.53,16.53,0,0,1,7.53,18.32A16.15,16.15,0,0,1,57.63,85c-10.5-6.13-9.09-16.54-6.22-22.34A16.08,16.08,0,0,1,73.68,56.61Z"/><path class="cls-10" d="M73.68,56.61a16.53,16.53,0,0,1,7.53,18.32A16.15,16.15,0,0,1,57.63,85c-10.5-6.13-9.09-16.54-6.22-22.34A16.08,16.08,0,0,1,73.68,56.61Z"/><circle class="cls-11" cx="41.15" cy="45.42" r="10.16"/><circle class="cls-12" cx="41.15" cy="45.42" r="10.1"/><circle class="cls-13" cx="41.15" cy="45.42" r="10.1"/><circle class="cls-11" cx="12.54" cy="46.41" r="5.31"/><circle class="cls-14" cx="12.54" cy="46.41" r="5.28"/><circle class="cls-15" cx="12.54" cy="46.41" r="5.28"/><circle class="cls-11" cx="27.86" cy="12.57" r="5.31"/><circle class="cls-16" cx="27.86" cy="12.57" r="5.28"/><circle class="cls-17" cx="27.86" cy="12.57" r="5.28"/><circle class="cls-18" cx="99.08" cy="51.99" r="10.22"/><circle class="cls-19" cx="99.08" cy="51.99" r="10.22"/></svg>